<?xml version="1.0" encoding="UTF-8"?>
<svg id="Layer_1" xmlns="http://www.w3.org/2000/svg" version="1.1" viewBox="0 0 595.28 841.89">
  <!-- Generator: Adobe Illustrator 29.2.1, SVG Export Plug-In . SVG Version: 2.1.0 Build 116)  -->
  <defs>
    <style>
      .st0 {
        fill: #604a44;
        stroke: #604a44;
        stroke-miterlimit: 10;
      }
    </style>
  </defs>
  <circle class="st0" cx="293.51" cy="377.11" r="13.27"/>
  <path class="st0" d="M439.88,464.53c-11.81-58.29-23.63-116.58-35.44-174.86-.61-3.03-3.39-6.61-6.17-7.96-1.44-.7-3.07-1.44-4.83-2.18l-55.3,11.54c1.53-1.14,22.12-10.68,36.75-17.41-4.04-.87-8.41-1.53-13.05-1.92l-37.4,19.32c1.21-1.45,7.01-9.58,17.76-19.02-25.47,2.89-42.99,14.71-49.73,19.76-6.92-4.42-19.34-11.32-36.18-15.33,8.06,7.71,12.5,13.91,13.54,15.15l-35.26-18.21c-5.71-.26-11.11-.1-16.15.37,14.67,6.74,36.13,16.68,37.7,17.84l-62.09-12.96c-1.85.58-3.58,1.16-5.15,1.73-3.33,1.21-6.59,5.04-7.26,8.52-11.14,57.77-24.56,116.11-35.69,173.88-.76,3.95,2.6,8.67,5.92,10.95.96.66,2.66,1.48,4.13,1.76,14.68,2.77,30.36-19.57,68.95-16.76,42.96,3.12,46.84,39.04,69.41,33.7,34.57-8.17,41.72-35.33,74.61-34.3,38.01,1.19,53.27,27.3,65.88,18.23.03-.02.06-.04.1-.06,3.63-2.24,5.81-7.62,4.97-11.79ZM232.45,329.29c-5.99,0-10.85-4.86-10.85-10.85s4.86-10.85,10.85-10.85,10.85,4.86,10.85,10.85-4.86,10.85-10.85,10.85ZM294.14,448.75c-33.39-29.66-45.9-67.23-34.13-89.88,5.13-9.88,17.41-21.77,33-22.02,15.48-.25,28.13,11.06,33.57,20.83,12.34,22.21.61,60.28-32.43,91.07ZM356.12,330.9c-5.99,0-10.85-4.86-10.85-10.85s4.86-10.85,10.85-10.85,10.85,4.86,10.85,10.85-4.86,10.85-10.85,10.85Z"/>
</svg>